<?xml version="1.0" standalone="no"?>
<!DOCTYPE svg PUBLIC "-//W3C//DTD SVG 20010904//EN"
 "http://www.w3.org/TR/2001/REC-SVG-20010904/DTD/svg10.dtd">
<svg version="1.0" xmlns="http://www.w3.org/2000/svg"
 width="200.000000pt" height="200.000000pt" viewBox="0 0 200.000000 200.000000"
 preserveAspectRatio="xMidYMid meet">
<metadata>
Created by potrace 1.10, written by Peter Selinger 2001-2011
</metadata>
<g transform="translate(0.000000,200.000000) scale(0.100000,-0.100000)"
fill="#000000" stroke="none">
<path d="M834 1486 c-155 -30 -262 -72 -386 -151 -82 -53 -348 -309 -348 -336
0 -9 64 -79 142 -155 196 -191 316 -264 524 -316 127 -32 341 -32 468 0 208
52 328 125 524 316 78 76 142 146 142 155 0 27 -266 283 -348 336 -164 105
-323 154 -522 161 -80 2 -151 -1 -196 -10z m401 -95 c103 -27 242 -96 325
-159 36 -28 105 -91 155 -141 l90 -91 -90 -91 c-117 -119 -200 -181 -310 -234
-143 -70 -233 -90 -405 -90 -172 0 -262 20 -405 90 -110 53 -193 115 -310 234
l-90 91 90 91 c50 50 116 111 147 135 112 87 256 151 403 180 99 19 297 12
400 -15z"/>
<path d="M925 1311 c-89 -23 -167 -88 -212 -174 -23 -45 -27 -64 -27 -137 0
-73 4 -92 27 -137 34 -66 84 -116 150 -150 45 -23 64 -27 137 -27 73 0 92 4
137 27 66 34 116 84 150 150 23 45 27 64 27 137 0 73 -4 92 -27 137 -56 108
-151 171 -265 178 -37 2 -80 1 -97 -4z m149 -83 c55 -16 138 -99 154 -154 28
-94 8 -169 -63 -239 -101 -102 -229 -102 -330 0 -102 101 -102 229 0 330 70
71 145 90 239 63z"/>
</g>
</svg>
